# xmcd
#
# Track frame offsets: 
#        150
#        20120
#        40785
#        63010
#        84710
#        104622
#        125075
#        143932
#        165427
#        187892
#        208717
#        232790
#
# Disc length: 3283 seconds
#
# Revision: 4
# Processed by: cddbd v1.5.2PL0 Copyright (c) Steve Scherf et al.
# Submitted via: ExactAudioCopy v1.0b3
#
DISCID=9f0cd10c
DTITLE=Goodfellaz - Goodfellaz
DYEAR=1996
DGENRE=R&B
TTITLE0=Sugar Honey Ice Tea
TTITLE1=Why You Wanna Flip On Me
TTITLE2=If You Walk Away
TTITLE3=Hey
TTITLE4=Show and Prove
TTITLE5=Backslidin'
TTITLE6=Nothing At All
TTITLE7=Anytime Will Do
TTITLE8=For Better Or Worse
TTITLE9=No Matter
TTITLE10=Pour Your Love Down
TTITLE11=If You Walk Away (Reprise)
EXTD=YEAR: 1996 ID3G: 14
EXTT0=
EXTT1=
EXTT2=
EXTT3=
EXTT4=
EXTT5=
EXTT6=
EXTT7=
EXTT8=
EXTT9=
EXTT10=
EXTT11=
PLAYORDER=
